RobotoSerifText-Semibold.ufo
<glyph name="exclam" format="1">
  <advance width="304"/>
  <unicode hex="0021"/>
  <outline>
    <contour>
      <point x="239" y="723" type="line"/>
      <point x="239" y="551"/>
      <point x="204" y="450"/>
      <point x="204" y="238" type="curve"/>
      <point x="101" y="238" type="line"/>
      <point x="101" y="450"/>
      <point x="65" y="550"/>
      <point x="65" y="723" type="curve"/>
    </contour>
    <component base="period" xOffset="-1"/>
  </outline>
</glyph>
<glyph name="parenleft" format="1">
  <advance width="354"/>
  <unicode hex="0028"/>
  <outline>
    <contour>
      <point x="184" y="310" type="curve" smooth="yes"/>
      <point x="184" y="112"/>
      <point x="271" y="-49"/>
      <point x="349" y="-127" type="curve"/>
      <point x="349" y="-130" type="line"/>
      <point x="245" y="-130" type="line"/>
      <point x="135" y="-51"/>
      <point x="38" y="117"/>
      <point x="38" y="310" type="curve" smooth="yes"/>
      <point x="38" y="503"/>
      <point x="135" y="671"/>
      <point x="245" y="750" type="curve"/>
      <point x="349" y="750" type="line"/>
      <point x="349" y="747" type="line"/>
      <point x="271" y="669"/>
      <point x="184" y="508"/>
    </contour>
  </outline>
</glyph>
<glyph name="M" format="1">
  <advance width="964"/>
  <unicode hex="004D"/>
  <outline>
    <contour>
      <point x="34" y="0" type="line"/>
      <point x="260" y="0" type="line"/>
      <point x="260" y="65" type="line"/>
      <point x="254" y="65" type="line" smooth="yes"/>
      <point x="226" y="65"/>
      <point x="190" y="68"/>
      <point x="190" y="75" type="curve" smooth="yes"/>
      <point x="190" y="689" type="line"/>
      <point x="176" y="687" type="line"/>
      <point x="388" y="-2" type="line"/>
      <point x="482" y="-2" type="line"/>
      <point x="693" y="686" type="line"/>
      <point x="679" y="688" type="line"/>
      <point x="680" y="75" type="line" smooth="yes"/>
      <point x="680" y="68"/>
      <point x="648" y="65"/>
      <point x="619" y="65" type="curve" smooth="yes"/>
      <point x="610" y="65" type="line"/>
      <point x="610" y="0" type="line"/>
      <point x="931" y="0" type="line"/>
      <point x="931" y="65" type="line"/>
      <point x="920" y="65" type="line" smooth="yes"/>
      <point x="883" y="65"/>
      <point x="856" y="72"/>
      <point x="856" y="101" type="curve" smooth="yes"/>
      <point x="855" y="610" type="line" smooth="yes"/>
      <point x="855" y="639"/>
      <point x="882" y="646"/>
      <point x="919" y="646" type="curve" smooth="yes"/>
      <point x="930" y="646" type="line"/>
      <point x="930" y="710" type="line"/>
      <point x="618" y="710" type="line"/>
      <point x="435" y="93" type="line"/>
      <point x="502" y="169" type="line"/>
      <point x="351" y="710" type="line"/>
      <point x="34" y="710" type="line"/>
      <point x="34" y="646" type="line"/>
      <point x="44" y="646" type="line" smooth="yes"/>
      <point x="81" y="646"/>
      <point x="108" y="639"/>
      <point x="108" y="610" type="curve" smooth="yes"/>
      <point x="108" y="101" type="line" smooth="yes"/>
      <point x="108" y="72"/>
      <point x="81" y="65"/>
      <point x="44" y="65" type="curve"/>
      <point x="34" y="65" type="line"/>
    </contour>
    <contour>
      <point x="465" y="0" type="move" name="bottom"/>
    </contour>
  </outline>
</glyph>
<glyph name="N" format="1">
  <advance width="775"/>
  <unicode hex="004E"/>
  <outline>
    <contour>
      <point x="34" y="0" type="line"/>
      <point x="275" y="0" type="line"/>
      <point x="275" y="65" type="line"/>
      <point x="262" y="65" type="line" smooth="yes"/>
      <point x="227" y="65"/>
      <point x="190" y="73"/>
      <point x="190" y="80" type="curve" smooth="yes"/>
      <point x="190" y="674" type="line"/>
      <point x="166" y="670" type="line"/>
      <point x="500" y="0" type="line"/>
      <point x="671" y="0" type="line"/>
      <point x="671" y="607" type="line" smooth="yes"/>
      <point x="671" y="636"/>
      <point x="698" y="646"/>
      <point x="735" y="646" type="curve" smooth="yes"/>
      <point x="746" y="646" type="line"/>
      <point x="746" y="710" type="line"/>
      <point x="505" y="710" type="line"/>
      <point x="505" y="646" type="line"/>
      <point x="518" y="646" type="line" smooth="yes"/>
      <point x="552" y="646"/>
      <point x="589" y="638"/>
      <point x="589" y="631" type="curve" smooth="yes"/>
      <point x="589" y="90" type="line"/>
      <point x="612" y="142" type="line"/>
      <point x="334" y="710" type="line"/>
      <point x="34" y="710" type="line"/>
      <point x="34" y="646" type="line"/>
      <point x="44" y="646" type="line" smooth="yes"/>
      <point x="81" y="646"/>
      <point x="108" y="639"/>
      <point x="108" y="610" type="curve" smooth="yes"/>
      <point x="108" y="106" type="line" smooth="yes"/>
      <point x="108" y="77"/>
      <point x="81" y="65"/>
      <point x="44" y="65" type="curve" smooth="yes"/>
      <point x="34" y="65" type="line"/>
    </contour>
    <contour>
      <point x="409" y="741" type="move" name="top"/>
    </contour>
    <contour>
      <point x="409" y="0" type="move" name="bottom"/>
    </contour>
  </outline>
</glyph>
<glyph name="U" format="1">
  <advance width="775"/>
  <unicode hex="0055"/>
  <outline>
    <contour>
      <point x="283" y="276" type="curve" smooth="yes"/>
      <point x="283" y="636" type="line" smooth="yes"/>
      <point x="283" y="643"/>
      <point x="319" y="646"/>
      <point x="348" y="646" type="curve" smooth="yes"/>
      <point x="357" y="646" type="line"/>
      <point x="357" y="710" type="line"/>
      <point x="32" y="710" type="line"/>
      <point x="32" y="646" type="line"/>
      <point x="42" y="646" type="line" smooth="yes"/>
      <point x="79" y="646"/>
      <point x="106" y="639"/>
      <point x="106" y="610" type="curve" smooth="yes"/>
      <point x="106" y="276" type="line" smooth="yes"/>
      <point x="106" y="74"/>
      <point x="223" y="-10"/>
      <point x="397" y="-10" type="curve" smooth="yes"/>
      <point x="550" y="-10"/>
      <point x="669" y="72"/>
      <point x="669" y="276" type="curve" smooth="yes"/>
      <point x="669" y="605" type="line" smooth="yes"/>
      <point x="669" y="636"/>
      <point x="696" y="646"/>
      <point x="733" y="646" type="curve" smooth="yes"/>
      <point x="744" y="646" type="line"/>
      <point x="744" y="710" type="line"/>
      <point x="513" y="710" type="line"/>
      <point x="513" y="646" type="line"/>
      <point x="522" y="646" type="line" smooth="yes"/>
      <point x="551" y="646"/>
      <point x="587" y="639"/>
      <point x="587" y="625" type="curve" smooth="yes"/>
      <point x="587" y="276" type="line" smooth="yes"/>
      <point x="587" y="133"/>
      <point x="526" y="81"/>
      <point x="435" y="81" type="curve" smooth="yes"/>
      <point x="339" y="81"/>
      <point x="283" y="131"/>
    </contour>
    <contour>
      <point x="408" y="741" type="move" name="top"/>
    </contour>
    <contour>
      <point x="463" y="0" type="move" name="right"/>
    </contour>
    <contour>
      <point x="408" y="0" type="move" name="bottom"/>
    </contour>
  </outline>
</glyph>
<glyph name="V" format="1">
  <advance width="717"/>
  <unicode hex="0056"/>
  <outline>
    <contour>
      <point x="9" y="710" type="line"/>
      <point x="9" y="646" type="line"/>
      <point x="14" y="646" type="line"/>
      <point x="43" y="646"/>
      <point x="61" y="642"/>
      <point x="69" y="618" type="curve" smooth="yes"/>
      <point x="273" y="0" type="line"/>
      <point x="418" y="0" type="line"/>
      <point x="431" y="56" type="line"/>
      <point x="244" y="636" type="line"/>
      <point x="244" y="643"/>
      <point x="280" y="646"/>
      <point x="308" y="646" type="curve" smooth="yes"/>
      <point x="325" y="646" type="line"/>
      <point x="325" y="710" type="line"/>
    </contour>
    <contour>
      <point x="708" y="710" type="line"/>
      <point x="494" y="710" type="line"/>
      <point x="494" y="646" type="line"/>
      <point x="508" y="646" type="line" smooth="yes"/>
      <point x="536" y="646"/>
      <point x="571" y="639"/>
      <point x="571" y="628" type="curve"/>
      <point x="368" y="0" type="line"/>
      <point x="449" y="0" type="line"/>
      <point x="646" y="603" type="line" smooth="yes"/>
      <point x="657" y="638"/>
      <point x="672" y="646"/>
      <point x="704" y="646" type="curve"/>
      <point x="708" y="646" type="line"/>
    </contour>
  </outline>
</glyph>
<glyph name="Y" format="1">
  <advance width="692"/>
  <unicode hex="0059"/>
  <outline>
    <contour>
      <point x="260" y="321" type="line"/>
      <point x="260" y="101" type="line" smooth="yes"/>
      <point x="260" y="72"/>
      <point x="233" y="65"/>
      <point x="196" y="65" type="curve" smooth="yes"/>
      <point x="181" y="65" type="line"/>
      <point x="181" y="0" type="line"/>
      <point x="515" y="0" type="line"/>
      <point x="515" y="65" type="line"/>
      <point x="500" y="65" type="line" smooth="yes"/>
      <point x="463" y="65"/>
      <point x="436" y="72"/>
      <point x="436" y="101" type="curve" smooth="yes"/>
      <point x="436" y="321" type="line"/>
      <point x="425" y="274" type="line"/>
      <point x="608" y="605" type="line" smooth="yes"/>
      <point x="628" y="640"/>
      <point x="650" y="646"/>
      <point x="678" y="646" type="curve" smooth="yes"/>
      <point x="682" y="646" type="line"/>
      <point x="682" y="710" type="line"/>
      <point x="458" y="710" type="line"/>
      <point x="458" y="646" type="line"/>
      <point x="471" y="646" type="line" smooth="yes"/>
      <point x="502" y="646"/>
      <point x="536" y="639"/>
      <point x="536" y="628" type="curve"/>
      <point x="372" y="329" type="line"/>
      <point x="415" y="338" type="line"/>
      <point x="247" y="636" type="line"/>
      <point x="247" y="643"/>
      <point x="280" y="646"/>
      <point x="309" y="646" type="curve" smooth="yes"/>
      <point x="326" y="646" type="line"/>
      <point x="326" y="710" type="line"/>
      <point x="10" y="710" type="line"/>
      <point x="10" y="646" type="line"/>
      <point x="15" y="646" type="line" smooth="yes"/>
      <point x="42" y="646"/>
      <point x="61" y="646"/>
      <point x="76" y="620" type="curve" smooth="yes"/>
      <point x="273" y="276" type="line"/>
    </contour>
    <contour>
      <point x="345" y="741" type="move" name="top"/>
    </contour>
    <contour>
      <point x="345" y="0" type="move" name="bottom"/>
    </contour>
  </outline>
</glyph>
<glyph name="a" format="1">
  <advance width="580"/>
  <unicode hex="0061"/>
  <outline>
    <contour>
      <point x="372" y="308" type="line"/>
      <point x="148" y="282"/>
      <point x="35" y="237"/>
      <point x="35" y="126" type="curve" smooth="yes"/>
      <point x="35" y="38"/>
      <point x="100" y="-11"/>
      <point x="201" y="-11" type="curve" smooth="yes"/>
      <point x="293" y="-11"/>
      <point x="350" y="37"/>
      <point x="376" y="122" type="curve"/>
      <point x="417" y="173"/>
      <point x="363" y="152"/>
      <point x="359" y="153" type="curve"/>
      <point x="339" y="100"/>
      <point x="304" y="63"/>
      <point x="259" y="63" type="curve" smooth="yes"/>
      <point x="218" y="63"/>
      <point x="193" y="87"/>
      <point x="193" y="132" type="curve" smooth="yes"/>
      <point x="193" y="196"/>
      <point x="247" y="233"/>
      <point x="371" y="248" type="curve"/>
    </contour>
    <contour>
      <point x="358" y="0" type="line"/>
      <point x="568" y="0" type="line"/>
      <point x="568" y="63" type="line"/>
      <point x="565" y="64" type="line"/>
      <point x="531" y="67"/>
      <point x="510" y="72"/>
      <point x="510" y="95" type="curve" smooth="yes"/>
      <point x="510" y="347" type="line" smooth="yes"/>
      <point x="510" y="472"/>
      <point x="414" y="521"/>
      <point x="287" y="521" type="curve" smooth="yes"/>
      <point x="171" y="521"/>
      <point x="98" y="478"/>
      <point x="69" y="455" type="curve"/>
      <point x="69" y="348" type="line"/>
      <point x="203" y="348" type="line"/>
      <point x="203" y="451" type="line"/>
      <point x="166" y="443"/>
      <point x="148" y="417"/>
      <point x="169" y="390" type="curve"/>
      <point x="187" y="421"/>
      <point x="219" y="447"/>
      <point x="270" y="447" type="curve" smooth="yes"/>
      <point x="320" y="447"/>
      <point x="347" y="424"/>
      <point x="347" y="364" type="curve" smooth="yes"/>
      <point x="347" y="100" type="line"/>
      <point x="358" y="94" type="line"/>
    </contour>
    <contour>
      <point x="251" y="553" type="move" name="top"/>
    </contour>
    <contour>
      <point x="407" y="-10" type="move" name="right"/>
    </contour>
    <contour>
      <point x="279" y="0" type="move" name="bottom"/>
    </contour>
  </outline>
</glyph>
<glyph name="j" format="1">
  <advance width="312"/>
  <unicode hex="006A"/>
  <outline>
    <contour>
      <point x="81" y="-35" type="line" smooth="yes"/>
      <point x="81" y="-128"/>
      <point x="51" y="-158"/>
      <point x="-2" y="-158" type="curve" smooth="yes"/>
      <point x="-32" y="-158"/>
      <point x="-56" y="-150"/>
      <point x="-77" y="-142" type="curve"/>
      <point x="-77" y="-222" type="line"/>
      <point x="-61" y="-230"/>
      <point x="-20" y="-236"/>
      <point x="24" y="-236" type="curve" smooth="yes"/>
      <point x="161" y="-236"/>
      <point x="248" y="-182"/>
      <point x="248" y="-19" type="curve" smooth="yes"/>
      <point x="248" y="511" type="line"/>
      <point x="11" y="511" type="line"/>
      <point x="11" y="448" type="line"/>
      <point x="22" y="446" type="line" smooth="yes"/>
      <point x="60" y="440"/>
      <point x="81" y="433"/>
      <point x="81" y="411" type="curve" smooth="yes"/>
    </contour>
    <contour>
      <point x="161" y="588" type="curve" smooth="yes"/>
      <point x="218" y="588"/>
      <point x="254" y="617"/>
      <point x="254" y="667" type="curve" smooth="yes"/>
      <point x="254" y="716"/>
      <point x="218" y="745"/>
      <point x="161" y="745" type="curve" smooth="yes"/>
      <point x="104" y="745"/>
      <point x="69" y="716"/>
      <point x="69" y="667" type="curve" smooth="yes"/>
      <point x="69" y="617"/>
      <point x="104" y="588"/>
    </contour>
    <contour>
      <point x="159" y="551" type="move" name="top"/>
    </contour>
  </outline>
</glyph>
<glyph name="l" format="1">
  <advance width="325"/>
  <unicode hex="006C"/>
  <outline>
    <contour>
      <point x="251" y="733" type="line"/>
      <point x="25" y="733" type="line"/>
      <point x="25" y="670" type="line"/>
      <point x="34" y="668" type="line" smooth="yes"/>
      <point x="69" y="660"/>
      <point x="84" y="655"/>
      <point x="84" y="632" type="curve" smooth="yes"/>
      <point x="84" y="92" type="line" smooth="yes"/>
      <point x="84" y="67"/>
      <point x="60" y="61"/>
      <point x="27" y="61" type="curve" smooth="yes"/>
      <point x="25" y="61" type="line"/>
      <point x="25" y="0" type="line"/>
      <point x="310" y="0" type="line"/>
      <point x="310" y="61" type="line"/>
      <point x="309" y="61" type="line" smooth="yes"/>
      <point x="276" y="61"/>
      <point x="251" y="67"/>
      <point x="251" y="92" type="curve" smooth="yes"/>
    </contour>
    <contour>
      <point x="162" y="744" type="move" name="top"/>
    </contour>
    <contour>
      <point x="269" y="733" type="move" name="right"/>
    </contour>
    <contour>
      <point x="325" y="391" type="move" name="mid"/>
    </contour>
    <contour>
      <point x="165" y="0" type="move" name="bottom"/>
    </contour>
  </outline>
</glyph>
<glyph name="currency" format="1">
  <advance width="560"/>
  <unicode hex="00A4"/>
  <outline>
    <contour>
      <point x="378" y="373" type="curve" smooth="yes"/>
      <point x="378" y="311"/>
      <point x="340" y="270"/>
      <point x="280" y="270" type="curve" smooth="yes"/>
      <point x="220" y="270"/>
      <point x="183" y="311"/>
      <point x="183" y="373" type="curve" smooth="yes"/>
      <point x="183" y="435"/>
      <point x="220" y="477"/>
      <point x="280" y="477" type="curve" smooth="yes"/>
      <point x="340" y="477"/>
      <point x="378" y="435"/>
    </contour>
    <contour>
      <point x="65" y="373" type="curve" smooth="yes"/>
      <point x="65" y="249"/>
      <point x="160" y="160"/>
      <point x="280" y="160" type="curve" smooth="yes"/>
      <point x="401" y="160"/>
      <point x="495" y="249"/>
      <point x="495" y="373" type="curve" smooth="yes"/>
      <point x="495" y="498"/>
      <point x="401" y="587"/>
      <point x="280" y="587" type="curve" smooth="yes"/>
      <point x="160" y="587"/>
      <point x="65" y="498"/>
    </contour>
    <contour>
      <point x="15" y="573" type="line"/>
      <point x="122" y="466" type="line"/>
      <point x="203" y="533" type="line"/>
      <point x="89" y="647" type="line"/>
    </contour>
    <contour>
      <point x="545" y="573" type="line"/>
      <point x="471" y="647" type="line"/>
      <point x="358" y="533" type="line"/>
      <point x="439" y="466" type="line"/>
    </contour>
    <contour>
      <point x="15" y="174" type="line"/>
      <point x="89" y="100" type="line"/>
      <point x="203" y="213" type="line"/>
      <point x="122" y="280" type="line"/>
    </contour>
    <contour>
      <point x="545" y="174" type="line"/>
      <point x="439" y="280" type="line"/>
      <point x="358" y="213" type="line"/>
      <point x="471" y="100" type="line"/>
    </contour>
  </outline>
</glyph>
<glyph name="Eng" format="1">
  <advance width="775"/>
  <unicode hex="014A"/>
  <outline>
    <contour>
      <point x="587" y="66" type="line"/>
      <point x="587" y="-8" type="line" smooth="yes"/>
      <point x="587" y="-95"/>
      <point x="544" y="-128"/>
      <point x="488" y="-128" type="curve" smooth="yes"/>
      <point x="448" y="-128"/>
      <point x="411" y="-116"/>
      <point x="389" y="-110" type="curve"/>
      <point x="389" y="-197" type="line"/>
      <point x="415" y="-207"/>
      <point x="457" y="-212"/>
      <point x="493" y="-212" type="curve" smooth="yes"/>
      <point x="593" y="-212"/>
      <point x="671" y="-148"/>
      <point x="671" y="-7" type="curve" smooth="yes"/>
      <point x="671" y="607" type="line" smooth="yes"/>
      <point x="671" y="636"/>
      <point x="698" y="646"/>
      <point x="735" y="646" type="curve" smooth="yes"/>
      <point x="746" y="646" type="line"/>
      <point x="746" y="710" type="line"/>
      <point x="505" y="710" type="line"/>
      <point x="505" y="646" type="line"/>
      <point x="518" y="646" type="line" smooth="yes"/>
      <point x="552" y="646"/>
      <point x="589" y="638"/>
      <point x="589" y="631" type="curve" smooth="yes"/>
      <point x="589" y="125" type="line"/>
      <point x="633" y="214" type="line"/>
      <point x="336" y="710" type="line"/>
      <point x="34" y="710" type="line"/>
      <point x="34" y="646" type="line"/>
      <point x="44" y="646" type="line" smooth="yes"/>
      <point x="81" y="646"/>
      <point x="108" y="639"/>
      <point x="108" y="610" type="curve" smooth="yes"/>
      <point x="108" y="106" type="line" smooth="yes"/>
      <point x="108" y="77"/>
      <point x="81" y="65"/>
      <point x="44" y="65" type="curve" smooth="yes"/>
      <point x="34" y="65" type="line"/>
      <point x="34" y="0" type="line"/>
      <point x="275" y="0" type="line"/>
      <point x="275" y="65" type="line"/>
      <point x="262" y="65" type="line" smooth="yes"/>
      <point x="227" y="65"/>
      <point x="190" y="73"/>
      <point x="190" y="80" type="curve" smooth="yes"/>
      <point x="190" y="674" type="line"/>
      <point x="167" y="670" type="line"/>
      <point x="620" y="-103" type="line"/>
    </contour>
  </outline>
</glyph>
<glyph name="ogonek" format="1">
  <advance width="600"/>
  <unicode hex="02DB"/>
  <outline>
    <contour>
      <point x="380" y="39" type="line"/>
      <point x="246" y="-13"/>
      <point x="169" y="-64"/>
      <point x="169" y="-142" type="curve" smooth="yes"/>
      <point x="169" y="-206"/>
      <point x="221" y="-241"/>
      <point x="296" y="-241" type="curve" smooth="yes"/>
      <point x="364" y="-241"/>
      <point x="401" y="-216"/>
      <point x="431" y="-178" type="curve"/>
      <point x="393" y="-135" type="line"/>
      <point x="381" y="-145"/>
      <point x="364" y="-163"/>
      <point x="340" y="-163" type="curve" smooth="yes"/>
      <point x="317" y="-163"/>
      <point x="301" y="-149"/>
      <point x="301" y="-119" type="curve" smooth="yes"/>
      <point x="301" y="-82"/>
      <point x="325" y="-35"/>
      <point x="418" y="12" type="curve"/>
    </contour>
    <contour>
      <point x="356" y="9" type="move" name="_right"/>
    </contour>
  </outline>
</glyph>
<glyph name="hungarumlaut" format="1">
  <advance width="500"/>
  <unicode hex="02DD"/>
  <outline>
    <contour>
      <point x="138" y="694" type="curve" smooth="yes"/>
      <point x="124" y="586" type="line"/>
      <point x="124" y="562" type="line"/>
      <point x="178" y="562" type="line"/>
      <point x="230" y="636" type="line" smooth="yes"/>
      <point x="260" y="676"/>
      <point x="272" y="702"/>
      <point x="272" y="728" type="curve" smooth="yes"/>
      <point x="272" y="758"/>
      <point x="251" y="781"/>
      <point x="212" y="781" type="curve" smooth="yes"/>
      <point x="167" y="781"/>
      <point x="143" y="753"/>
    </contour>
    <contour>
      <point x="316" y="694" type="curve" smooth="yes"/>
      <point x="302" y="586" type="line"/>
      <point x="302" y="562" type="line"/>
      <point x="357" y="562" type="line"/>
      <point x="408" y="636" type="line" smooth="yes"/>
      <point x="438" y="676"/>
      <point x="450" y="702"/>
      <point x="450" y="728" type="curve" smooth="yes"/>
      <point x="450" y="758"/>
      <point x="430" y="781"/>
      <point x="390" y="781" type="curve" smooth="yes"/>
      <point x="345" y="781"/>
      <point x="322" y="753"/>
    </contour>
    <contour>
      <point x="259" y="525" type="move" name="_top"/>
    </contour>
  </outline>
</glyph>
<glyph name="quoteright" format="1">
  <advance width="249"/>
  <unicode hex="2019"/>
  <outline>
    <contour>
      <point x="102" y="375" type="line"/>
      <point x="170" y="441"/>
      <point x="214" y="527"/>
      <point x="214" y="617" type="curve" smooth="yes"/>
      <point x="214" y="685"/>
      <point x="177" y="715"/>
      <point x="124" y="715" type="curve" smooth="yes"/>
      <point x="73" y="715"/>
      <point x="39" y="681"/>
      <point x="39" y="638" type="curve" smooth="yes"/>
      <point x="39" y="593"/>
      <point x="75" y="563"/>
      <point x="126" y="563" type="curve" smooth="yes"/>
      <point x="139" y="563"/>
      <point x="149" y="564"/>
      <point x="158" y="570" type="curve"/>
      <point x="148" y="578"/>
      <point x="140" y="596"/>
      <point x="138" y="592" type="curve"/>
      <point x="134" y="533"/>
      <point x="76" y="470"/>
      <point x="10" y="419" type="curve"/>
    </contour>
  </outline>
</glyph>
<glyph name="lira" format="1">
  <advance width="560"/>
  <unicode hex="20A4"/>
  <outline>
    <contour>
      <point x="23" y="460" type="line"/>
      <point x="23" y="393" type="line"/>
      <point x="424" y="393" type="line"/>
      <point x="424" y="460" type="line"/>
    </contour>
    <contour>
      <point x="23" y="308" type="line"/>
      <point x="23" y="241" type="line"/>
      <point x="424" y="241" type="line"/>
      <point x="424" y="308" type="line"/>
    </contour>
    <contour>
      <point x="14" y="-11" type="line"/>
      <point x="189" y="19"/>
      <point x="279" y="128"/>
      <point x="279" y="251" type="curve" smooth="yes"/>
      <point x="279" y="370"/>
      <point x="229" y="443"/>
      <point x="229" y="537" type="curve" smooth="yes"/>
      <point x="229" y="602"/>
      <point x="266" y="641"/>
      <point x="325" y="641" type="curve" smooth="yes"/>
      <point x="369" y="641"/>
      <point x="398" y="623"/>
      <point x="418" y="600" type="curve"/>
      <point x="431" y="613"/>
      <point x="432" y="637"/>
      <point x="393" y="638" type="curve"/>
      <point x="393" y="540" type="line"/>
      <point x="517" y="540" type="line"/>
      <point x="517" y="661" type="line"/>
      <point x="490" y="685"/>
      <point x="424" y="719"/>
      <point x="317" y="719" type="curve" smooth="yes"/>
      <point x="162" y="719"/>
      <point x="71" y="636"/>
      <point x="71" y="527" type="curve" smooth="yes"/>
      <point x="71" y="411"/>
      <point x="155" y="338"/>
      <point x="155" y="228" type="curve" smooth="yes"/>
      <point x="155" y="154"/>
      <point x="111" y="112"/>
      <point x="14" y="85" type="curve"/>
    </contour>
    <contour>
      <point x="157" y="124" type="line"/>
      <point x="258" y="36"/>
      <point x="304" y="-10"/>
      <point x="381" y="-10" type="curve" smooth="yes"/>
      <point x="480" y="-10"/>
      <point x="535" y="68"/>
      <point x="557" y="170" type="curve"/>
      <point x="483" y="197" type="line"/>
      <point x="466" y="131"/>
      <point x="439" y="104"/>
      <point x="386" y="104" type="curve" smooth="yes"/>
      <point x="332" y="104"/>
      <point x="283" y="129"/>
      <point x="213" y="190" type="curve"/>
    </contour>
  </outline>
</glyph>
<glyph name="uni20AB" format="1">
  <advance width="560"/>
  <unicode hex="20AB"/>
  <outline>
    <contour>
      <point x="187" y="249" type="curve" smooth="yes"/>
      <point x="187" y="363"/>
      <point x="211" y="435"/>
      <point x="267" y="435" type="curve" smooth="yes"/>
      <point x="315" y="435"/>
      <point x="342" y="389"/>
      <point x="363" y="309" type="curve"/>
      <point x="403" y="323" type="line"/>
      <point x="366" y="457"/>
      <point x="320" y="521"/>
      <point x="226" y="521" type="curve" smooth="yes"/>
      <point x="106" y="521"/>
      <point x="27" y="415"/>
      <point x="27" y="249" type="curve" smooth="yes"/>
      <point x="27" y="87"/>
      <point x="102" y="-13"/>
      <point x="221" y="-13" type="curve" smooth="yes"/>
      <point x="310" y="-13"/>
      <point x="350" y="48"/>
      <point x="401" y="170" type="curve"/>
      <point x="367" y="207" type="line"/>
      <point x="343" y="122"/>
      <point x="311" y="74"/>
      <point x="264" y="74" type="curve" smooth="yes"/>
      <point x="211" y="74"/>
      <point x="187" y="138"/>
    </contour>
    <contour>
      <point x="345" y="723" type="line"/>
      <point x="345" y="106" type="line"/>
      <point x="356" y="112" type="line"/>
      <point x="356" y="0" type="line"/>
      <point x="553" y="0" type="line"/>
      <point x="553" y="63" type="line"/>
      <point x="548" y="64" type="line"/>
      <point x="516" y="66"/>
      <point x="498" y="72"/>
      <point x="498" y="95" type="curve" smooth="yes"/>
      <point x="498" y="723" type="line"/>
    </contour>
    <contour>
      <point x="81" y="-107" type="line"/>
      <point x="81" y="-189" type="line"/>
      <point x="518" y="-189" type="line"/>
      <point x="518" y="-107" type="line"/>
    </contour>
    <contour>
      <point x="201" y="642" type="line"/>
      <point x="201" y="568" type="line"/>
      <point x="565" y="568" type="line"/>
      <point x="565" y="642" type="line"/>
    </contour>
  </outline>
</glyph>
<glyph name="guarani" format="1">
  <advance width="560"/>
  <unicode hex="20B2"/>
  <outline>
    <contour>
      <point x="382" y="361" type="line"/>
      <point x="382" y="296" type="line"/>
      <point x="384" y="296" type="line" smooth="yes"/>
      <point x="394" y="296"/>
      <point x="402" y="289"/>
      <point x="402" y="260" type="curve"/>
      <point x="517" y="262" type="line"/>
      <point x="517" y="289"/>
      <point x="532" y="296"/>
      <point x="552" y="296" type="curve" smooth="yes"/>
      <point x="556" y="296" type="line"/>
      <point x="556" y="361" type="line"/>
    </contour>
    <contour>
      <point x="257" y="790" type="line"/>
      <point x="257" y="665" type="line"/>
      <point x="266" y="653" type="line"/>
      <point x="266" y="57" type="line"/>
      <point x="257" y="40" type="line"/>
      <point x="257" y="-120" type="line"/>
      <point x="342" y="-120" type="line"/>
      <point x="342" y="40" type="line"/>
      <point x="333" y="58" type="line"/>
      <point x="333" y="654" type="line"/>
      <point x="342" y="671" type="line"/>
      <point x="342" y="790" type="line"/>
    </contour>
    <contour>
      <point x="309" y="0" type="curve"/>
      <point x="404" y="0"/>
      <point x="482" y="45"/>
      <point x="517" y="88" type="curve"/>
      <point x="517" y="306" type="line"/>
      <point x="402" y="327" type="line"/>
      <point x="402" y="106" type="line"/>
      <point x="388" y="92"/>
      <point x="358" y="74"/>
      <point x="315" y="74" type="curve"/>
      <point x="213" y="74"/>
      <point x="167" y="176"/>
      <point x="167" y="355" type="curve" smooth="yes"/>
      <point x="167" y="524"/>
      <point x="202" y="636"/>
      <point x="325" y="636" type="curve"/>
      <point x="377" y="636"/>
      <point x="420" y="615"/>
      <point x="447" y="570" type="curve"/>
      <point x="471" y="586"/>
      <point x="460" y="626"/>
      <point x="406" y="624" type="curve"/>
      <point x="406" y="516" type="line"/>
      <point x="521" y="516" type="line"/>
      <point x="521" y="638" type="line"/>
      <point x="494" y="676"/>
      <point x="418" y="710"/>
      <point x="316" y="710" type="curve"/>
      <point x="133" y="710"/>
      <point x="15" y="563"/>
      <point x="15" y="355" type="curve" smooth="yes"/>
      <point x="15" y="142"/>
      <point x="130" y="0"/>
    </contour>
  </outline>
</glyph>
<glyph name="manat" format="1">
  <advance width="560"/>
  <unicode hex="20BC"/>
  <outline>
    <contour>
      <point x="249" y="720" type="line"/>
      <point x="249" y="149" type="line"/>
      <point x="312" y="149" type="line"/>
      <point x="312" y="720" type="line"/>
    </contour>
    <contour>
      <point x="280" y="519" type="curve" smooth="yes"/>
      <point x="384" y="519"/>
      <point x="410" y="385"/>
      <point x="400" y="0" type="curve"/>
      <point x="544" y="0" type="line"/>
      <point x="544" y="353"/>
      <point x="458" y="590"/>
      <point x="280" y="590" type="curve" smooth="yes"/>
      <point x="103" y="590"/>
      <point x="17" y="353"/>
      <point x="17" y="0" type="curve"/>
      <point x="160" y="0" type="line"/>
      <point x="150" y="385"/>
      <point x="176" y="519"/>
    </contour>
  </outline>
</glyph>
<glyph name="trademark" format="1">
  <advance width="906"/>
  <unicode hex="2122"/>
  <outline>
    <contour>
      <point x="43" y="710" type="line"/>
      <point x="43" y="593" type="line"/>
      <point x="92" y="593" type="line"/>
      <point x="95" y="646" type="line" smooth="yes"/>
      <point x="96" y="662"/>
      <point x="111" y="668"/>
      <point x="147" y="668" type="curve" smooth="yes"/>
      <point x="160" y="668" type="line"/>
      <point x="160" y="440" type="line" smooth="yes"/>
      <point x="160" y="427"/>
      <point x="147" y="424"/>
      <point x="131" y="424" type="curve" smooth="yes"/>
      <point x="122" y="424" type="line"/>
      <point x="122" y="382" type="line"/>
      <point x="293" y="382" type="line"/>
      <point x="293" y="424" type="line"/>
      <point x="284" y="424" type="line" smooth="yes"/>
      <point x="268" y="424"/>
      <point x="255" y="427"/>
      <point x="255" y="440" type="curve" smooth="yes"/>
      <point x="255" y="668" type="line"/>
      <point x="268" y="668" type="line" smooth="yes"/>
      <point x="304" y="668"/>
      <point x="319" y="662"/>
      <point x="320" y="646" type="curve" smooth="yes"/>
      <point x="324" y="593" type="line"/>
      <point x="372" y="593" type="line"/>
      <point x="372" y="710" type="line"/>
    </contour>
    <contour>
      <point x="401" y="382" type="line"/>
      <point x="515" y="382" type="line"/>
      <point x="515" y="424" type="line"/>
      <point x="512" y="424" type="line" smooth="yes"/>
      <point x="502" y="424"/>
      <point x="486" y="426"/>
      <point x="486" y="428" type="curve" smooth="yes"/>
      <point x="486" y="702" type="line"/>
      <point x="478" y="701" type="line"/>
      <point x="570" y="381" type="line"/>
      <point x="639" y="381" type="line"/>
      <point x="734" y="700" type="line"/>
      <point x="725" y="701" type="line"/>
      <point x="725" y="428" type="line" smooth="yes"/>
      <point x="725" y="426"/>
      <point x="711" y="424"/>
      <point x="700" y="424" type="curve" smooth="yes"/>
      <point x="697" y="424" type="line"/>
      <point x="697" y="382" type="line"/>
      <point x="856" y="382" type="line"/>
      <point x="856" y="424" type="line"/>
      <point x="850" y="424" type="line" smooth="yes"/>
      <point x="833" y="424"/>
      <point x="822" y="427"/>
      <point x="822" y="440" type="curve" smooth="yes"/>
      <point x="822" y="653" type="line" smooth="yes"/>
      <point x="822" y="667"/>
      <point x="833" y="669"/>
      <point x="850" y="669" type="curve" smooth="yes"/>
      <point x="856" y="669" type="line"/>
      <point x="856" y="710" type="line"/>
      <point x="684" y="710" type="line"/>
      <point x="602" y="424" type="line"/>
      <point x="637" y="459" type="line"/>
      <point x="574" y="710" type="line"/>
      <point x="401" y="710" type="line"/>
      <point x="401" y="669" type="line"/>
      <point x="406" y="669" type="line" smooth="yes"/>
      <point x="422" y="669"/>
      <point x="435" y="667"/>
      <point x="435" y="653" type="curve" smooth="yes"/>
      <point x="435" y="440" type="line" smooth="yes"/>
      <point x="435" y="427"/>
      <point x="422" y="424"/>
      <point x="406" y="424" type="curve"/>
      <point x="401" y="424" type="line"/>
    </contour>
  </outline>
</glyph>
<glyph name="integral" format="1">
  <advance width="616"/>
  <unicode hex="222B"/>
  <outline>
    <contour>
      <point x="372" y="-31" type="curve" smooth="yes"/>
      <point x="390" y="532" type="line" smooth="yes"/>
      <point x="393" y="636"/>
      <point x="411" y="663"/>
      <point x="459" y="663" type="curve" smooth="yes"/>
      <point x="489" y="663"/>
      <point x="505" y="648"/>
      <point x="518" y="619" type="curve"/>
      <point x="538" y="635"/>
      <point x="522" y="668"/>
      <point x="493" y="667" type="curve"/>
      <point x="493" y="585" type="line"/>
      <point x="607" y="585" type="line"/>
      <point x="607" y="688" type="line"/>
      <point x="588" y="709"/>
      <point x="536" y="737"/>
      <point x="448" y="737" type="curve" smooth="yes"/>
      <point x="316" y="737"/>
      <point x="229" y="667"/>
      <point x="225" y="532" type="curve" smooth="yes"/>
      <point x="207" y="-31" type="line" smooth="yes"/>
      <point x="204" y="-135"/>
      <point x="186" y="-162"/>
      <point x="138" y="-162" type="curve" smooth="yes"/>
      <point x="108" y="-162"/>
      <point x="92" y="-147"/>
      <point x="79" y="-118" type="curve"/>
      <point x="58" y="-134"/>
      <point x="75" y="-167"/>
      <point x="104" y="-166" type="curve"/>
      <point x="104" y="-84" type="line"/>
      <point x="-10" y="-84" type="line"/>
      <point x="-10" y="-187" type="line"/>
      <point x="9" y="-208"/>
      <point x="61" y="-236"/>
      <point x="149" y="-236" type="curve" smooth="yes"/>
      <point x="281" y="-236"/>
      <point x="368" y="-166"/>
    </contour>
  </outline>
</glyph>
<glyph name="f_f_l" format="1">
  <advance width="1039"/>
  <unicode hex="FB04"/>
  <outline>
    <contour>
      <point x="19" y="511" type="line"/>
      <point x="19" y="440" type="line"/>
      <point x="403" y="440" type="line"/>
      <point x="403" y="511" type="line"/>
    </contour>
    <contour>
      <point x="365" y="511" type="line"/>
      <point x="365" y="440" type="line"/>
      <point x="724" y="440" type="line"/>
      <point x="724" y="511" type="line"/>
    </contour>
    <contour>
      <point x="333" y="0" type="line"/>
      <point x="333" y="61" type="line"/>
      <point x="330" y="61" type="line" smooth="yes"/>
      <point x="296" y="61"/>
      <point x="273" y="63"/>
      <point x="273" y="70" type="curve" smooth="yes"/>
      <point x="273" y="568" type="line" smooth="yes"/>
      <point x="273" y="644"/>
      <point x="302" y="663"/>
      <point x="343" y="663" type="curve" smooth="yes"/>
      <point x="365" y="663"/>
      <point x="387" y="655"/>
      <point x="398" y="651" type="curve"/>
      <point x="398" y="726" type="line"/>
      <point x="383" y="732"/>
      <point x="350" y="738"/>
      <point x="315" y="738" type="curve" smooth="yes"/>
      <point x="206" y="738"/>
      <point x="107" y="690"/>
      <point x="107" y="543" type="curve" smooth="yes"/>
      <point x="107" y="94" type="line" smooth="yes"/>
      <point x="107" y="69"/>
      <point x="83" y="61"/>
      <point x="41" y="61" type="curve" smooth="yes"/>
      <point x="30" y="61" type="line"/>
      <point x="30" y="0" type="line"/>
    </contour>
    <contour>
      <point x="685" y="0" type="line"/>
      <point x="685" y="61" type="line"/>
      <point x="677" y="61" type="line" smooth="yes"/>
      <point x="645" y="61"/>
      <point x="619" y="63"/>
      <point x="619" y="70" type="curve" smooth="yes"/>
      <point x="619" y="573" type="line" smooth="yes"/>
      <point x="619" y="652"/>
      <point x="653" y="675"/>
      <point x="710" y="675" type="curve" smooth="yes"/>
      <point x="764" y="675"/>
      <point x="803" y="653"/>
      <point x="834" y="594" type="curve"/>
      <point x="888" y="697" type="line"/>
      <point x="845" y="726"/>
      <point x="784" y="750"/>
      <point x="698" y="750" type="curve" smooth="yes"/>
      <point x="569" y="750"/>
      <point x="452" y="702"/>
      <point x="452" y="555" type="curve"/>
      <point x="452" y="70" type="line" smooth="yes"/>
      <point x="452" y="63"/>
      <point x="430" y="61"/>
      <point x="394" y="61" type="curve" smooth="yes"/>
      <point x="387" y="61" type="line"/>
      <point x="387" y="0" type="line"/>
    </contour>
    <contour>
      <point x="1024" y="0" type="line"/>
      <point x="1024" y="61" type="line"/>
      <point x="1022" y="61" type="line" smooth="yes"/>
      <point x="989" y="61"/>
      <point x="965" y="67"/>
      <point x="965" y="92" type="curve" smooth="yes"/>
      <point x="965" y="733" type="line"/>
      <point x="754" y="733" type="line"/>
      <point x="798" y="699" type="line"/>
      <point x="798" y="70" type="line" smooth="yes"/>
      <point x="798" y="63"/>
      <point x="767" y="61"/>
      <point x="747" y="61" type="curve" smooth="yes"/>
      <point x="739" y="61" type="line"/>
      <point x="739" y="0" type="line"/>
    </contour>
  </outline>
</glyph>
<glyph name="acute.ucpl" format="1">
  <advance width="500"/>
  <outline>
    <contour>
      <point x="171" y="854" type="curve" smooth="yes"/>
      <point x="167" y="776" type="line"/>
      <point x="167" y="753" type="line"/>
      <point x="221" y="753" type="line"/>
      <point x="260" y="805" type="line" smooth="yes"/>
      <point x="294" y="850"/>
      <point x="308" y="877"/>
      <point x="308" y="904" type="curve" smooth="yes"/>
      <point x="308" y="935"/>
      <point x="286" y="958"/>
      <point x="247" y="958" type="curve" smooth="yes"/>
      <point x="198" y="958"/>
      <point x="174" y="923"/>
    </contour>
    <contour>
      <point x="189" y="694" type="move" name="_top"/>
    </contour>
  </outline>
</glyph>
<glyph name="acute_dotaccent.uc" format="1">
  <advance width="545"/>
  <outline>
    <component base="acute.uc" xOffset="-1"/>
    <component base="dotaccent.uc" xOffset="10" yOffset="200"/>
    <contour>
      <point x="231" y="677" type="move" name="_top"/>
    </contour>
  </outline>
</glyph>
<glyph name="breve_hook" format="1">
  <advance width="510"/>
  <outline>
    <contour>
      <point x="139" y="832" type="line"/>
      <point x="142" y="873"/>
      <point x="177" y="910"/>
      <point x="256" y="910" type="curve" smooth="yes"/>
      <point x="331" y="910"/>
      <point x="372" y="883"/>
      <point x="372" y="836" type="curve" smooth="yes"/>
      <point x="372" y="782"/>
      <point x="322" y="762"/>
      <point x="257" y="757" type="curve"/>
      <point x="285" y="782" type="line"/>
      <point x="285" y="732" type="line"/>
      <point x="213" y="732" type="line"/>
      <point x="213" y="791" type="line"/>
      <point x="261" y="794"/>
      <point x="281" y="807"/>
      <point x="281" y="832" type="curve" smooth="yes"/>
      <point x="281" y="850"/>
      <point x="272" y="860"/>
      <point x="251" y="860" type="curve" smooth="yes"/>
      <point x="232" y="860"/>
      <point x="221" y="849"/>
      <point x="218" y="832" type="curve"/>
    </contour>
    <contour>
      <point x="250" y="568" type="curve" smooth="yes"/>
      <point x="159" y="568"/>
      <point x="94" y="622"/>
      <point x="93" y="731" type="curve"/>
      <point x="177" y="731" type="line"/>
      <point x="184" y="678"/>
      <point x="212" y="664"/>
      <point x="253" y="664" type="curve" smooth="yes"/>
      <point x="295" y="664"/>
      <point x="322" y="678"/>
      <point x="329" y="731" type="curve"/>
      <point x="407" y="731" type="line"/>
      <point x="406" y="622"/>
      <point x="341" y="568"/>
    </contour>
    <contour>
      <point x="250" y="525" type="move" name="_top"/>
    </contour>
  </outline>
</glyph>
<glyph name="cent.proportional" format="1">
  <advance width="585"/>
  <outline>
    <contour>
      <point x="282" y="623" type="line"/>
      <point x="282" y="477" type="line"/>
      <point x="293" y="463" type="line"/>
      <point x="293" y="43" type="line"/>
      <point x="282" y="26" type="line"/>
      <point x="282" y="-126" type="line"/>
      <point x="367" y="-126" type="line"/>
      <point x="367" y="24" type="line"/>
      <point x="356" y="38" type="line"/>
      <point x="356" y="468" type="line"/>
      <point x="367" y="486" type="line"/>
      <point x="367" y="623" type="line"/>
    </contour>
    <contour>
      <point x="344" y="63" type="curve" smooth="yes"/>
      <point x="249" y="63"/>
      <point x="188" y="122"/>
      <point x="188" y="251" type="curve" smooth="yes"/>
      <point x="188" y="379"/>
      <point x="231" y="447"/>
      <point x="334" y="447" type="curve" smooth="yes"/>
      <point x="403" y="447"/>
      <point x="441" y="418"/>
      <point x="458" y="395" type="curve"/>
      <point x="484" y="396"/>
      <point x="488" y="437"/>
      <point x="430" y="451" type="curve"/>
      <point x="430" y="327" type="line"/>
      <point x="544" y="327" type="line"/>
      <point x="544" y="453" type="line"/>
      <point x="519" y="475"/>
      <point x="448" y="521"/>
      <point x="326" y="521" type="curve" smooth="yes"/>
      <point x="152" y="521"/>
      <point x="34" y="415"/>
      <point x="34" y="251" type="curve" smooth="yes"/>
      <point x="34" y="89"/>
      <point x="160" y="-13"/>
      <point x="324" y="-13" type="curve" smooth="yes"/>
      <point x="445" y="-13"/>
      <point x="511" y="46"/>
      <point x="553" y="124" type="curve"/>
      <point x="493" y="168" type="line"/>
      <point x="465" y="121"/>
      <point x="424" y="63"/>
    </contour>
  </outline>
</glyph>
<glyph name="circumflex_tilde" format="1">
  <advance width="500"/>
  <outline>
    <contour>
      <point x="328" y="762" type="curve" smooth="yes"/>
      <point x="390" y="762"/>
      <point x="430" y="808"/>
      <point x="448" y="890" type="curve"/>
      <point x="379" y="915" type="line"/>
      <point x="369" y="880"/>
      <point x="357" y="860"/>
      <point x="332" y="860" type="curve" smooth="yes"/>
      <point x="291" y="860"/>
      <point x="261" y="913"/>
      <point x="193" y="913" type="curve" smooth="yes"/>
      <point x="125" y="913"/>
      <point x="93" y="868"/>
      <point x="77" y="784" type="curve"/>
      <point x="146" y="761" type="line"/>
      <point x="153" y="797"/>
      <point x="165" y="816"/>
      <point x="190" y="816" type="curve" smooth="yes"/>
      <point x="225" y="816"/>
      <point x="253" y="762"/>
    </contour>
    <contour>
      <point x="328" y="720" type="line"/>
      <point x="436" y="579" type="line"/>
      <point x="436" y="562" type="line"/>
      <point x="361" y="562" type="line"/>
      <point x="213" y="659" type="line"/>
      <point x="296" y="659" type="line"/>
      <point x="147" y="562" type="line"/>
      <point x="82" y="562" type="line"/>
      <point x="82" y="579" type="line"/>
      <point x="191" y="720" type="line"/>
    </contour>
    <contour>
      <point x="245" y="551" type="move" name="_top"/>
    </contour>
  </outline>
</glyph>
<glyph name="dieresis.uc" format="1">
  <advance width="500"/>
  <outline>
    <component base="dieresis" yOffset="191"/>
    <contour>
      <point x="250" y="694" type="move" name="_top"/>
    </contour>
  </outline>
</glyph>
<glyph name="eight.den" format="1">
  <advance width="374"/>
  <outline>
    <contour>
      <point x="187" y="201" type="curve" smooth="yes"/>
      <point x="82" y="201"/>
      <point x="21" y="166"/>
      <point x="21" y="104" type="curve" smooth="yes"/>
      <point x="21" y="39"/>
      <point x="79" y="-6"/>
      <point x="187" y="-6" type="curve" smooth="yes"/>
      <point x="295" y="-6"/>
      <point x="354" y="39"/>
      <point x="354" y="104" type="curve" smooth="yes"/>
      <point x="354" y="165"/>
      <point x="292" y="201"/>
    </contour>
    <contour>
      <point x="187" y="169" type="curve" smooth="yes"/>
      <point x="219" y="169"/>
      <point x="234" y="147"/>
      <point x="234" y="108" type="curve" smooth="yes"/>
      <point x="234" y="69"/>
      <point x="218" y="48"/>
      <point x="187" y="48" type="curve" smooth="yes"/>
      <point x="156" y="48"/>
      <point x="140" y="69"/>
      <point x="140" y="108" type="curve" smooth="yes"/>
      <point x="140" y="147"/>
      <point x="155" y="169"/>
    </contour>
    <contour>
      <point x="187" y="365" type="curve" smooth="yes"/>
      <point x="89" y="365"/>
      <point x="37" y="324"/>
      <point x="37" y="271" type="curve" smooth="yes"/>
      <point x="37" y="217"/>
      <point x="90" y="184"/>
      <point x="187" y="184" type="curve" smooth="yes"/>
      <point x="284" y="184"/>
      <point x="337" y="217"/>
      <point x="337" y="271" type="curve" smooth="yes"/>
      <point x="337" y="324"/>
      <point x="286" y="365"/>
    </contour>
    <contour>
      <point x="187" y="213" type="curve" smooth="yes"/>
      <point x="160" y="213"/>
      <point x="147" y="230"/>
      <point x="147" y="263" type="curve" smooth="yes"/>
      <point x="147" y="295"/>
      <point x="159" y="312"/>
      <point x="187" y="312" type="curve" smooth="yes"/>
      <point x="214" y="312"/>
      <point x="228" y="295"/>
      <point x="228" y="263" type="curve" smooth="yes"/>
      <point x="228" y="230"/>
      <point x="214" y="213"/>
    </contour>
  </outline>
</glyph>
<glyph name="f_f.short" format="1">
  <advance width="760"/>
  <outline>
    <contour>
      <point x="19" y="511" type="line"/>
      <point x="19" y="440" type="line"/>
      <point x="403" y="440" type="line"/>
      <point x="403" y="511" type="line"/>
    </contour>
    <contour>
      <point x="365" y="511" type="line"/>
      <point x="365" y="440" type="line"/>
      <point x="743" y="440" type="line"/>
      <point x="743" y="511" type="line"/>
    </contour>
    <contour>
      <point x="452" y="70" type="line"/>
      <point x="452" y="63"/>
      <point x="428" y="61"/>
      <point x="395" y="61" type="curve" smooth="yes"/>
      <point x="387" y="61" type="line"/>
      <point x="387" y="0" type="line"/>
      <point x="707" y="0" type="line"/>
      <point x="707" y="61" type="line"/>
      <point x="695" y="61" type="line" smooth="yes"/>
      <point x="655" y="61"/>
      <point x="619" y="63"/>
      <point x="619" y="70" type="curve" smooth="yes"/>
      <point x="619" y="572" type="line" smooth="yes"/>
      <point x="619" y="652"/>
      <point x="645" y="676"/>
      <point x="689" y="676" type="curve" smooth="yes"/>
      <point x="716" y="676"/>
      <point x="741" y="666"/>
      <point x="753" y="661" type="curve"/>
      <point x="753" y="738" type="line"/>
      <point x="738" y="744"/>
      <point x="705" y="750"/>
      <point x="668" y="750" type="curve" smooth="yes"/>
      <point x="553" y="750"/>
      <point x="452" y="702"/>
      <point x="452" y="555" type="curve"/>
    </contour>
    <contour>
      <point x="273" y="70" type="curve"/>
      <point x="273" y="568" type="line" smooth="yes"/>
      <point x="273" y="644"/>
      <point x="302" y="663"/>
      <point x="343" y="663" type="curve" smooth="yes"/>
      <point x="365" y="663"/>
      <point x="387" y="655"/>
      <point x="398" y="651" type="curve"/>
      <point x="398" y="726" type="line"/>
      <point x="383" y="732"/>
      <point x="350" y="738"/>
      <point x="315" y="738" type="curve" smooth="yes"/>
      <point x="206" y="738"/>
      <point x="107" y="690"/>
      <point x="107" y="543" type="curve" smooth="yes"/>
      <point x="107" y="94" type="line" smooth="yes"/>
      <point x="107" y="69"/>
      <point x="83" y="61"/>
      <point x="41" y="61" type="curve" smooth="yes"/>
      <point x="30" y="61" type="line"/>
      <point x="30" y="0" type="line"/>
      <point x="333" y="0" type="line"/>
      <point x="333" y="61" type="line"/>
      <point x="330" y="61" type="line" smooth="yes"/>
      <point x="296" y="61"/>
      <point x="273" y="63"/>
    </contour>
  </outline>
</glyph>
<glyph name="f_j" format="1">
  <advance width="683"/>
  <outline>
    <contour>
      <point x="532" y="588" type="curve" smooth="yes"/>
      <point x="589" y="588"/>
      <point x="625" y="617"/>
      <point x="625" y="667" type="curve" smooth="yes"/>
      <point x="625" y="716"/>
      <point x="589" y="745"/>
      <point x="532" y="745" type="curve" smooth="yes"/>
      <point x="475" y="745"/>
      <point x="440" y="716"/>
      <point x="440" y="667" type="curve" smooth="yes"/>
      <point x="440" y="617"/>
      <point x="475" y="588"/>
    </contour>
    <contour>
      <point x="19" y="511" type="line"/>
      <point x="19" y="440" type="line"/>
      <point x="437" y="440" type="line"/>
      <point x="437" y="511" type="line"/>
    </contour>
    <contour>
      <point x="452" y="-35" type="line" smooth="yes"/>
      <point x="452" y="-128"/>
      <point x="422" y="-158"/>
      <point x="369" y="-158" type="curve" smooth="yes"/>
      <point x="340" y="-158"/>
      <point x="316" y="-150"/>
      <point x="294" y="-143" type="curve"/>
      <point x="294" y="-223" type="line"/>
      <point x="311" y="-230"/>
      <point x="351" y="-236"/>
      <point x="395" y="-236" type="curve" smooth="yes"/>
      <point x="532" y="-236"/>
      <point x="619" y="-182"/>
      <point x="619" y="-19" type="curve" smooth="yes"/>
      <point x="619" y="511" type="line"/>
      <point x="388" y="511" type="line"/>
      <point x="388" y="440" type="line"/>
      <point x="402" y="440" type="line" smooth="yes"/>
      <point x="438" y="440"/>
      <point x="452" y="427"/>
      <point x="452" y="405" type="curve" smooth="yes"/>
    </contour>
    <contour>
      <point x="339" y="0" type="line"/>
      <point x="339" y="61" type="line"/>
      <point x="330" y="61" type="line" smooth="yes"/>
      <point x="299" y="61"/>
      <point x="273" y="63"/>
      <point x="273" y="70" type="curve" smooth="yes"/>
      <point x="273" y="580" type="line" smooth="yes"/>
      <point x="273" y="656"/>
      <point x="298" y="675"/>
      <point x="338" y="675" type="curve" smooth="yes"/>
      <point x="357" y="675"/>
      <point x="379" y="668"/>
      <point x="389" y="664" type="curve"/>
      <point x="389" y="738" type="line"/>
      <point x="375" y="744"/>
      <point x="344" y="750"/>
      <point x="310" y="750" type="curve" smooth="yes"/>
      <point x="203" y="750"/>
      <point x="107" y="702"/>
      <point x="107" y="555" type="curve" smooth="yes"/>
      <point x="107" y="94" type="line" smooth="yes"/>
      <point x="107" y="69"/>
      <point x="83" y="61"/>
      <point x="41" y="61" type="curve" smooth="yes"/>
      <point x="30" y="61" type="line"/>
      <point x="30" y="0" type="line"/>
    </contour>
  </outline>
</glyph>
<glyph name="g.alt" format="1">
  <advance width="651"/>
  <outline>
    <contour>
      <point x="421" y="38" type="line"/>
      <point x="421" y="-89"/>
      <point x="368" y="-147"/>
      <point x="282" y="-147" type="curve" smooth="yes"/>
      <point x="212" y="-147"/>
      <point x="170" y="-122"/>
      <point x="147" y="-86" type="curve"/>
      <point x="134" y="-122"/>
      <point x="136" y="-170"/>
      <point x="178" y="-173" type="curve"/>
      <point x="178" y="-43" type="line"/>
      <point x="43" y="-43" type="line"/>
      <point x="43" y="-143" type="line"/>
      <point x="76" y="-190"/>
      <point x="170" y="-229"/>
      <point x="293" y="-229" type="curve" smooth="yes"/>
      <point x="471" y="-229"/>
      <point x="588" y="-133"/>
      <point x="588" y="49" type="curve"/>
      <point x="588" y="513" type="line"/>
      <point x="485" y="513" type="line"/>
      <point x="440" y="410" type="line"/>
      <point x="421" y="392" type="line"/>
    </contour>
    <contour>
      <point x="207" y="254" type="curve" smooth="yes"/>
      <point x="207" y="365"/>
      <point x="242" y="435"/>
      <point x="313" y="435" type="curve" smooth="yes"/>
      <point x="375" y="435"/>
      <point x="412" y="388"/>
      <point x="445" y="308" type="curve"/>
      <point x="486" y="328" type="line"/>
      <point x="441" y="459"/>
      <point x="383" y="521"/>
      <point x="272" y="521" type="curve" smooth="yes"/>
      <point x="132" y="521"/>
      <point x="35" y="412"/>
      <point x="35" y="254" type="curve" smooth="yes"/>
      <point x="35" y="100"/>
      <point x="126" y="-3"/>
      <point x="265" y="-3" type="curve" smooth="yes"/>
      <point x="370" y="-3"/>
      <point x="419" y="57"/>
      <point x="479" y="177" type="curve"/>
      <point x="444" y="219" type="line"/>
      <point x="407" y="135"/>
      <point x="368" y="84"/>
      <point x="308" y="84" type="curve" smooth="yes"/>
      <point x="241" y="84"/>
      <point x="207" y="147"/>
    </contour>
  </outline>
</glyph>
<glyph name="hook.uc" format="1">
  <advance width="511"/>
  <outline>
    <contour>
      <point x="110" y="869" type="line"/>
      <point x="114" y="919"/>
      <point x="156" y="964"/>
      <point x="248" y="964" type="curve" smooth="yes"/>
      <point x="332" y="964"/>
      <point x="380" y="933"/>
      <point x="380" y="878" type="curve" smooth="yes"/>
      <point x="380" y="812"/>
      <point x="318" y="791"/>
      <point x="234" y="786" type="curve"/>
      <point x="276" y="814" type="line"/>
      <point x="276" y="750" type="line"/>
      <point x="196" y="750" type="line"/>
      <point x="196" y="823" type="line"/>
      <point x="254" y="826"/>
      <point x="279" y="840"/>
      <point x="279" y="870" type="curve" smooth="yes"/>
      <point x="279" y="892"/>
      <point x="266" y="905"/>
      <point x="241" y="905" type="curve" smooth="yes"/>
      <point x="213" y="905"/>
      <point x="200" y="890"/>
      <point x="197" y="869" type="curve"/>
    </contour>
    <contour>
      <point x="224" y="679" type="move" name="_top"/>
    </contour>
  </outline>
</glyph>
<glyph name="hookabovecomb" format="1">
  <advance width="255"/>
  <outline>
    <contour>
      <point x="-171" y="684" type="line"/>
      <point x="-166" y="734"/>
      <point x="-127" y="780"/>
      <point x="-37" y="780" type="curve" smooth="yes"/>
      <point x="46" y="780"/>
      <point x="92" y="747"/>
      <point x="92" y="691" type="curve" smooth="yes"/>
      <point x="92" y="625"/>
      <point x="29" y="599"/>
      <point x="-51" y="592" type="curve"/>
      <point x="-12" y="624" type="line"/>
      <point x="-12" y="559" type="line"/>
      <point x="-87" y="559" type="line"/>
      <point x="-87" y="633" type="line"/>
      <point x="-31" y="638"/>
      <point x="-8" y="654"/>
      <point x="-8" y="684" type="curve" smooth="yes"/>
      <point x="-8" y="704"/>
      <point x="-20" y="718"/>
      <point x="-44" y="718" type="curve" smooth="yes"/>
      <point x="-70" y="718"/>
      <point x="-83" y="704"/>
      <point x="-86" y="684" type="curve"/>
    </contour>
    <contour>
      <point x="-306" y="517" type="move" name="_top"/>
    </contour>
  </outline>
</glyph>
<glyph name="kip.proportional" format="1">
  <advance width="740"/>
  <outline>
    <contour>
      <point x="39" y="406" type="line"/>
      <point x="39" y="332" type="line"/>
      <point x="662" y="332" type="line"/>
      <point x="662" y="406" type="line"/>
    </contour>
    <contour>
      <point x="39" y="0" type="line"/>
      <point x="349" y="0" type="line"/>
      <point x="349" y="65" type="line"/>
      <point x="341" y="65" type="line" smooth="yes"/>
      <point x="314" y="65"/>
      <point x="281" y="68"/>
      <point x="281" y="75" type="curve" smooth="yes"/>
      <point x="281" y="636" type="line" smooth="yes"/>
      <point x="281" y="643"/>
      <point x="320" y="646"/>
      <point x="354" y="646" type="curve" smooth="yes"/>
      <point x="364" y="646" type="line"/>
      <point x="364" y="710" type="line"/>
      <point x="39" y="710" type="line"/>
      <point x="39" y="646" type="line"/>
      <point x="49" y="646" type="line" smooth="yes"/>
      <point x="86" y="646"/>
      <point x="113" y="639"/>
      <point x="113" y="610" type="curve" smooth="yes"/>
      <point x="113" y="101" type="line" smooth="yes"/>
      <point x="113" y="72"/>
      <point x="86" y="65"/>
      <point x="49" y="65" type="curve" smooth="yes"/>
      <point x="39" y="65" type="line"/>
    </contour>
    <contour>
      <point x="733" y="65" type="line"/>
      <point x="720" y="65" type="line" smooth="yes"/>
      <point x="688" y="65"/>
      <point x="671" y="71"/>
      <point x="655" y="98" type="curve" smooth="yes"/>
      <point x="450" y="448" type="line"/>
      <point x="405" y="357" type="line"/>
      <point x="617" y="612" type="line" smooth="yes"/>
      <point x="640" y="639"/>
      <point x="659" y="646"/>
      <point x="692" y="646" type="curve" smooth="yes"/>
      <point x="710" y="646" type="line"/>
      <point x="710" y="710" type="line"/>
      <point x="462" y="710" type="line"/>
      <point x="462" y="646" type="line"/>
      <point x="472" y="646" type="line" smooth="yes"/>
      <point x="502" y="646"/>
      <point x="540" y="644"/>
      <point x="540" y="637" type="curve"/>
      <point x="315" y="367" type="line"/>
      <point x="326" y="342" type="line"/>
      <point x="478" y="75" type="line"/>
      <point x="478" y="68"/>
      <point x="450" y="65"/>
      <point x="425" y="65" type="curve" smooth="yes"/>
      <point x="416" y="65" type="line"/>
      <point x="416" y="0" type="line"/>
      <point x="733" y="0" type="line"/>
    </contour>
  </outline>
</glyph>
<glyph name="peseta.proportional" format="1">
  <advance width="856"/>
  <outline>
    <contour>
      <point x="34" y="0" type="line"/>
      <point x="333" y="0" type="line"/>
      <point x="333" y="65" type="line"/>
      <point x="310" y="65" type="line" smooth="yes"/>
      <point x="285" y="65"/>
      <point x="253" y="68"/>
      <point x="253" y="75" type="curve" smooth="yes"/>
      <point x="253" y="265" type="line"/>
      <point x="277" y="265" type="line" smooth="yes"/>
      <point x="446" y="265"/>
      <point x="541" y="366"/>
      <point x="541" y="491" type="curve" smooth="yes"/>
      <point x="541" y="624"/>
      <point x="446" y="710"/>
      <point x="267" y="710" type="curve" smooth="yes"/>
      <point x="34" y="710" type="line"/>
      <point x="34" y="646" type="line"/>
      <point x="45" y="646" type="line" smooth="yes"/>
      <point x="79" y="646"/>
      <point x="104" y="639"/>
      <point x="104" y="610" type="curve" smooth="yes"/>
      <point x="104" y="101" type="line" smooth="yes"/>
      <point x="104" y="72"/>
      <point x="79" y="65"/>
      <point x="45" y="65" type="curve" smooth="yes"/>
      <point x="34" y="65" type="line"/>
    </contour>
    <contour>
      <point x="277" y="632" type="line" smooth="yes"/>
      <point x="357" y="632"/>
      <point x="394" y="582"/>
      <point x="394" y="490" type="curve" smooth="yes"/>
      <point x="394" y="399"/>
      <point x="356" y="343"/>
      <point x="272" y="343" type="curve" smooth="yes"/>
      <point x="253" y="343" type="line"/>
      <point x="253" y="632" type="line"/>
    </contour>
    <contour>
      <point x="525" y="431" type="line"/>
      <point x="836" y="431" type="line"/>
      <point x="836" y="508" type="line"/>
      <point x="670" y="508" type="line"/>
      <point x="613" y="558" type="line"/>
      <point x="613" y="511"/>
      <point x="592" y="502"/>
      <point x="549" y="502" type="curve" smooth="yes"/>
      <point x="520" y="502" type="line"/>
    </contour>
    <contour>
      <point x="739" y="140" type="curve" smooth="yes"/>
      <point x="739" y="648" type="line"/>
      <point x="613" y="648" type="line"/>
      <point x="613" y="500" type="line"/>
      <point x="594" y="472" type="line"/>
      <point x="594" y="139" type="line" smooth="yes"/>
      <point x="594" y="23"/>
      <point x="669" y="-11"/>
      <point x="762" y="-11" type="curve" smooth="yes"/>
      <point x="796" y="-11"/>
      <point x="820" y="-7"/>
      <point x="836" y="-2" type="curve"/>
      <point x="836" y="77" type="line"/>
      <point x="828" y="75"/>
      <point x="811" y="72"/>
      <point x="795" y="72" type="curve" smooth="yes"/>
      <point x="760" y="72"/>
      <point x="739" y="89"/>
    </contour>
  </outline>
</glyph>
<glyph name="peso.proportional" format="1">
  <advance width="709"/>
  <outline>
    <contour>
      <point x="44" y="0" type="line"/>
      <point x="367" y="0" type="line"/>
      <point x="367" y="65" type="line"/>
      <point x="341" y="65" type="line" smooth="yes"/>
      <point x="315" y="65"/>
      <point x="283" y="68"/>
      <point x="283" y="75" type="curve" smooth="yes"/>
      <point x="283" y="239" type="line"/>
      <point x="331" y="239" type="line" smooth="yes"/>
      <point x="510" y="239"/>
      <point x="614" y="333"/>
      <point x="614" y="480" type="curve" smooth="yes"/>
      <point x="614" y="624"/>
      <point x="516" y="710"/>
      <point x="336" y="710" type="curve" smooth="yes"/>
      <point x="44" y="710" type="line"/>
      <point x="44" y="646" type="line"/>
      <point x="55" y="646" type="line" smooth="yes"/>
      <point x="92" y="646"/>
      <point x="119" y="639"/>
      <point x="119" y="610" type="curve" smooth="yes"/>
      <point x="119" y="101" type="line" smooth="yes"/>
      <point x="119" y="72"/>
      <point x="92" y="65"/>
      <point x="55" y="65" type="curve" smooth="yes"/>
      <point x="44" y="65" type="line"/>
    </contour>
    <contour>
      <point x="328" y="635" type="line" smooth="yes"/>
      <point x="411" y="635"/>
      <point x="456" y="583"/>
      <point x="456" y="477" type="curve" smooth="yes"/>
      <point x="456" y="372"/>
      <point x="411" y="313"/>
      <point x="324" y="313" type="curve" smooth="yes"/>
      <point x="283" y="313" type="line"/>
      <point x="283" y="635" type="line"/>
    </contour>
    <contour>
      <point x="44" y="509" type="line"/>
      <point x="44" y="440" type="line"/>
      <point x="205" y="440" type="line"/>
      <point x="229" y="445" type="line"/>
      <point x="543" y="445" type="line"/>
      <point x="568" y="440" type="line"/>
      <point x="690" y="440" type="line"/>
      <point x="690" y="509" type="line"/>
      <point x="575" y="509" type="line"/>
      <point x="552" y="504" type="line"/>
      <point x="217" y="504" type="line"/>
      <point x="200" y="509" type="line"/>
    </contour>
  </outline>
</glyph>
<glyph name="ringhalfright" format="1">
  <advance width="500"/>
  <outline>
    <contour>
      <point x="249" y="771" type="line"/>
      <point x="324" y="771"/>
      <point x="381" y="735"/>
      <point x="381" y="666" type="curve" smooth="yes"/>
      <point x="381" y="598"/>
      <point x="324" y="562"/>
      <point x="249" y="562" type="curve"/>
      <point x="249" y="613" type="line"/>
      <point x="277" y="613"/>
      <point x="296" y="631"/>
      <point x="296" y="666" type="curve" smooth="yes"/>
      <point x="296" y="702"/>
      <point x="276" y="719"/>
      <point x="249" y="719" type="curve"/>
    </contour>
    <contour>
      <point x="250" y="566" type="move" name="_top"/>
    </contour>
  </outline>
</glyph>
<glyph name="seven.lin" format="1">
  <advance width="560"/>
  <outline>
    <contour>
      <point x="234" y="592" type="line" smooth="yes"/>
      <point x="161" y="592"/>
      <point x="132" y="585"/>
      <point x="128" y="549" type="curve" smooth="yes"/>
      <point x="120" y="468" type="line"/>
      <point x="53" y="468" type="line"/>
      <point x="53" y="710" type="line"/>
      <point x="535" y="710" type="line"/>
      <point x="535" y="600" type="line"/>
      <point x="425" y="447"/>
      <point x="343" y="308"/>
      <point x="326" y="0" type="curve"/>
      <point x="167" y="0" type="line"/>
      <point x="194" y="297"/>
      <point x="399" y="544"/>
      <point x="473" y="618" type="curve"/>
      <point x="491" y="592" type="line"/>
    </contour>
  </outline>
</glyph>
<glyph name="six.old" format="1">
  <advance width="560"/>
  <outline>
    <contour>
      <point x="469" y="665" type="line"/>
      <point x="298" y="629"/>
      <point x="185" y="496"/>
      <point x="185" y="293" type="curve" smooth="yes"/>
      <point x="185" y="124"/>
      <point x="225" y="65"/>
      <point x="288" y="65" type="curve" smooth="yes"/>
      <point x="345" y="65"/>
      <point x="375" y="123"/>
      <point x="375" y="229" type="curve" smooth="yes"/>
      <point x="375" y="318"/>
      <point x="352" y="377"/>
      <point x="290" y="377" type="curve" smooth="yes"/>
      <point x="229" y="377"/>
      <point x="189" y="329"/>
      <point x="159" y="265" type="curve"/>
      <point x="151" y="329" type="line"/>
      <point x="172" y="388"/>
      <point x="231" y="452"/>
      <point x="330" y="452" type="curve" smooth="yes"/>
      <point x="452" y="452"/>
      <point x="537" y="373"/>
      <point x="537" y="233" type="curve" smooth="yes"/>
      <point x="537" y="85"/>
      <point x="437" y="-10"/>
      <point x="291" y="-10" type="curve" smooth="yes"/>
      <point x="135" y="-10"/>
      <point x="26" y="87"/>
      <point x="26" y="295" type="curve" smooth="yes"/>
      <point x="26" y="512"/>
      <point x="199" y="698"/>
      <point x="457" y="740" type="curve"/>
    </contour>
  </outline>
</glyph>
<glyph name="three.den" format="1">
  <advance width="346"/>
  <outline>
    <contour>
      <point x="153" y="44" type="curve" smooth="yes"/>
      <point x="190" y="44"/>
      <point x="214" y="65"/>
      <point x="214" y="102" type="curve" smooth="yes"/>
      <point x="214" y="140"/>
      <point x="193" y="161"/>
      <point x="137" y="161" type="curve" smooth="yes"/>
      <point x="107" y="161" type="line"/>
      <point x="107" y="210" type="line"/>
      <point x="130" y="210" type="line" smooth="yes"/>
      <point x="180" y="210"/>
      <point x="206" y="225"/>
      <point x="206" y="270" type="curve"/>
      <point x="206" y="301"/>
      <point x="188" y="314"/>
      <point x="161" y="314" type="curve" smooth="yes"/>
      <point x="129" y="314"/>
      <point x="108" y="294"/>
      <point x="97" y="272" type="curve"/>
      <point x="97" y="295"/>
      <point x="103" y="311"/>
      <point x="119" y="314" type="curve"/>
      <point x="119" y="254" type="line"/>
      <point x="32" y="254" type="line"/>
      <point x="32" y="300" type="line"/>
      <point x="51" y="333"/>
      <point x="99" y="365"/>
      <point x="174" y="365" type="curve" smooth="yes"/>
      <point x="256" y="365"/>
      <point x="316" y="334"/>
      <point x="316" y="276" type="curve"/>
      <point x="316" y="210"/>
      <point x="237" y="182"/>
      <point x="138" y="183" type="curve"/>
      <point x="147" y="191" type="line"/>
      <point x="278" y="192"/>
      <point x="328" y="158"/>
      <point x="328" y="98" type="curve" smooth="yes"/>
      <point x="328" y="30"/>
      <point x="260" y="-11"/>
      <point x="168" y="-11" type="curve" smooth="yes"/>
      <point x="76" y="-11"/>
      <point x="29" y="34"/>
      <point x="9" y="87" type="curve"/>
      <point x="59" y="119" type="line"/>
      <point x="74" y="86"/>
      <point x="104" y="44"/>
    </contour>
  </outline>
</glyph>
<glyph name="three.old" format="1">
  <advance width="560"/>
  <outline>
    <contour>
      <point x="254" y="-70" type="curve" smooth="yes"/>
      <point x="330" y="-70"/>
      <point x="376" y="-25"/>
      <point x="376" y="58" type="curve" smooth="yes"/>
      <point x="376" y="134"/>
      <point x="343" y="187"/>
      <point x="232" y="187" type="curve" smooth="yes"/>
      <point x="174" y="187" type="line"/>
      <point x="174" y="261" type="line"/>
      <point x="220" y="261" type="line" smooth="yes"/>
      <point x="312" y="261"/>
      <point x="359" y="300"/>
      <point x="359" y="386" type="curve" smooth="yes"/>
      <point x="359" y="454"/>
      <point x="320" y="481"/>
      <point x="268" y="481" type="curve" smooth="yes"/>
      <point x="213" y="481"/>
      <point x="179" y="454"/>
      <point x="156" y="419" type="curve"/>
      <point x="155" y="439"/>
      <point x="164" y="475"/>
      <point x="192" y="479" type="curve"/>
      <point x="192" y="367" type="line"/>
      <point x="62" y="367" type="line"/>
      <point x="62" y="475" type="line"/>
      <point x="99" y="516"/>
      <point x="176" y="558"/>
      <point x="282" y="558" type="curve" smooth="yes"/>
      <point x="411" y="558"/>
      <point x="513" y="501"/>
      <point x="513" y="392" type="curve" smooth="yes"/>
      <point x="513" y="279"/>
      <point x="389" y="219"/>
      <point x="231" y="219" type="curve"/>
      <point x="249" y="234" type="line"/>
      <point x="458" y="234"/>
      <point x="535" y="160"/>
      <point x="535" y="53" type="curve" smooth="yes"/>
      <point x="535" y="-75"/>
      <point x="423" y="-150"/>
      <point x="275" y="-150" type="curve" smooth="yes"/>
      <point x="134" y="-150"/>
      <point x="56" y="-84"/>
      <point x="24" y="3" type="curve"/>
      <point x="94" y="52" type="line"/>
      <point x="117" y="1"/>
      <point x="162" y="-70"/>
    </contour>
  </outline>
</glyph>
<glyph name="two.den" format="1">
  <advance width="350"/>
  <outline>
    <contour>
      <point x="205" y="82" type="line" smooth="yes"/>
      <point x="250" y="82"/>
      <point x="266" y="86"/>
      <point x="270" y="107" type="curve" smooth="yes"/>
      <point x="275" y="141" type="line"/>
      <point x="325" y="141" type="line"/>
      <point x="325" y="0" type="line"/>
      <point x="23" y="0" type="line"/>
      <point x="23" y="91" type="line"/>
      <point x="129" y="146"/>
      <point x="198" y="182"/>
      <point x="198" y="260" type="curve" smooth="yes"/>
      <point x="198" y="298"/>
      <point x="182" y="314"/>
      <point x="154" y="314" type="curve" smooth="yes"/>
      <point x="122" y="314"/>
      <point x="100" y="288"/>
      <point x="90" y="266" type="curve"/>
      <point x="91" y="285"/>
      <point x="100" y="317"/>
      <point x="117" y="318" type="curve"/>
      <point x="117" y="245" type="line"/>
      <point x="28" y="245" type="line"/>
      <point x="28" y="302" type="line"/>
      <point x="52" y="339"/>
      <point x="102" y="365"/>
      <point x="171" y="365" type="curve" smooth="yes"/>
      <point x="264" y="365"/>
      <point x="313" y="326"/>
      <point x="313" y="258" type="curve" smooth="yes"/>
      <point x="313" y="167"/>
      <point x="180" y="110"/>
      <point x="74" y="66" type="curve"/>
      <point x="64" y="66"/>
      <point x="66" y="79"/>
      <point x="67" y="82" type="curve"/>
    </contour>
  </outline>
</glyph>
<glyph name="two.lin" format="1">
  <advance width="560"/>
  <outline>
    <contour>
      <point x="269" y="720" type="curve" smooth="yes"/>
      <point x="420" y="720"/>
      <point x="506" y="647"/>
      <point x="506" y="519" type="curve" smooth="yes"/>
      <point x="506" y="345"/>
      <point x="283" y="196"/>
      <point x="101" y="88" type="curve"/>
      <point x="88" y="90"/>
      <point x="89" y="110"/>
      <point x="91" y="116" type="curve"/>
      <point x="319" y="116" type="line" smooth="yes"/>
      <point x="398" y="116"/>
      <point x="428" y="123"/>
      <point x="433" y="158" type="curve" smooth="yes"/>
      <point x="442" y="222" type="line"/>
      <point x="517" y="222" type="line"/>
      <point x="517" y="0" type="line"/>
      <point x="33" y="0" type="line"/>
      <point x="33" y="132" type="line"/>
      <point x="202" y="252"/>
      <point x="345" y="363"/>
      <point x="345" y="523" type="curve" smooth="yes"/>
      <point x="345" y="610"/>
      <point x="307" y="642"/>
      <point x="252" y="642" type="curve" smooth="yes"/>
      <point x="196" y="642"/>
      <point x="161" y="612"/>
      <point x="138" y="577" type="curve"/>
      <point x="137" y="596"/>
      <point x="142" y="635"/>
      <point x="171" y="638" type="curve"/>
      <point x="171" y="519" type="line"/>
      <point x="41" y="519" type="line"/>
      <point x="41" y="636" type="line"/>
      <point x="77" y="676"/>
      <point x="159" y="720"/>
    </contour>
  </outline>
</glyph>
<glyph name="two.old" format="1">
  <advance width="560"/>
  <outline>
    <contour>
      <point x="254" y="482" type="curve" smooth="yes"/>
      <point x="200" y="482"/>
      <point x="161" y="452"/>
      <point x="139" y="416" type="curve"/>
      <point x="138" y="437"/>
      <point x="146" y="474"/>
      <point x="174" y="477" type="curve"/>
      <point x="174" y="360" type="line"/>
      <point x="44" y="360" type="line"/>
      <point x="44" y="474" type="line"/>
      <point x="81" y="515"/>
      <point x="163" y="558"/>
      <point x="270" y="558" type="curve" smooth="yes"/>
      <point x="418" y="558"/>
      <point x="496" y="498"/>
      <point x="496" y="395" type="curve" smooth="yes"/>
      <point x="496" y="253"/>
      <point x="282" y="159"/>
      <point x="100" y="94" type="curve"/>
      <point x="86" y="89"/>
      <point x="88" y="104"/>
      <point x="91" y="114" type="curve"/>
      <point x="321" y="114" type="line" smooth="yes"/>
      <point x="399" y="114"/>
      <point x="427" y="120"/>
      <point x="433" y="155" type="curve" smooth="yes"/>
      <point x="441" y="204" type="line"/>
      <point x="516" y="204" type="line"/>
      <point x="516" y="0" type="line"/>
      <point x="33" y="0" type="line"/>
      <point x="33" y="133" type="line"/>
      <point x="193" y="212"/>
      <point x="335" y="274"/>
      <point x="335" y="402" type="curve" smooth="yes"/>
      <point x="335" y="458"/>
      <point x="306" y="482"/>
    </contour>
  </outline>
</glyph>
<glyph name="yen.proportional" format="1">
  <advance width="622"/>
  <outline>
    <contour>
      <point x="65" y="364" type="line"/>
      <point x="65" y="291" type="line"/>
      <point x="561" y="291" type="line"/>
      <point x="561" y="364" type="line"/>
    </contour>
    <contour>
      <point x="65" y="233" type="line"/>
      <point x="65" y="160" type="line"/>
      <point x="561" y="160" type="line"/>
      <point x="561" y="233" type="line"/>
    </contour>
    <contour>
      <point x="17" y="710" type="line"/>
      <point x="17" y="646" type="line"/>
      <point x="23" y="646" type="line" smooth="yes"/>
      <point x="46" y="646"/>
      <point x="62" y="643"/>
      <point x="76" y="620" type="curve" smooth="yes"/>
      <point x="247" y="325" type="line"/>
      <point x="381" y="324" type="line"/>
      <point x="538" y="605" type="line" smooth="yes"/>
      <point x="558" y="640"/>
      <point x="576" y="646"/>
      <point x="600" y="646" type="curve" smooth="yes"/>
      <point x="606" y="646" type="line"/>
      <point x="606" y="710" type="line"/>
      <point x="407" y="710" type="line"/>
      <point x="407" y="646" type="line"/>
      <point x="416" y="646" type="line" smooth="yes"/>
      <point x="441" y="646"/>
      <point x="470" y="639"/>
      <point x="470" y="628" type="curve"/>
      <point x="331" y="374" type="line"/>
      <point x="383" y="384" type="line"/>
      <point x="239" y="636" type="line"/>
      <point x="239" y="643"/>
      <point x="267" y="646"/>
      <point x="291" y="646" type="curve" smooth="yes"/>
      <point x="302" y="646" type="line"/>
      <point x="302" y="710" type="line"/>
    </contour>
    <contour>
      <point x="148" y="0" type="line"/>
      <point x="478" y="0" type="line"/>
      <point x="478" y="65" type="line"/>
      <point x="462" y="65" type="line" smooth="yes"/>
      <point x="426" y="65"/>
      <point x="399" y="72"/>
      <point x="399" y="101" type="curve" smooth="yes"/>
      <point x="399" y="370" type="line"/>
      <point x="227" y="370" type="line"/>
      <point x="227" y="101" type="line" smooth="yes"/>
      <point x="227" y="72"/>
      <point x="200" y="65"/>
      <point x="164" y="65" type="curve" smooth="yes"/>
      <point x="148" y="65" type="line"/>
    </contour>
  </outline>
</glyph>
<glyph name="zero.lin" format="1">
  <advance width="560"/>
  <outline>
    <contour>
      <point x="280" y="-11" type="curve" smooth="yes"/>
      <point x="433" y="-11"/>
      <point x="540" y="133"/>
      <point x="540" y="355" type="curve" smooth="yes"/>
      <point x="540" y="578"/>
      <point x="433" y="720"/>
      <point x="280" y="720" type="curve" smooth="yes"/>
      <point x="127" y="720"/>
      <point x="21" y="578"/>
      <point x="21" y="355" type="curve" smooth="yes"/>
      <point x="21" y="133"/>
      <point x="127" y="-11"/>
    </contour>
    <contour>
      <point x="280" y="67" type="curve" smooth="yes"/>
      <point x="215" y="67"/>
      <point x="184" y="147"/>
      <point x="184" y="355" type="curve" smooth="yes"/>
      <point x="184" y="565"/>
      <point x="215" y="643"/>
      <point x="280" y="643" type="curve" smooth="yes"/>
      <point x="345" y="643"/>
      <point x="377" y="565"/>
      <point x="377" y="355" type="curve" smooth="yes"/>
      <point x="377" y="147"/>
      <point x="344" y="67"/>
    </contour>
  </outline>
</glyph>
